<svg xmlns="http://www.w3.org/2000/svg" width="760" height="560" viewBox="0 0 760 560">
  <defs>
    <linearGradient id="page" x1="0" y1="0" x2="1" y2="1">
      <stop stop-color="#171b22"/>
      <stop offset="1" stop-color="#090c11"/>
    </linearGradient>
    <radialGradient id="cardGlow" cx="0" cy="0" r="1">
      <stop stop-color="#d84315" stop-opacity=".16"/>
      <stop offset=".55" stop-color="#d84315" stop-opacity="0"/>
    </radialGradient>
    <filter id="shadow" x="-20%" y="-20%" width="140%" height="140%">
      <feDropShadow dx="0" dy="14" stdDeviation="18" flood-color="#000" flood-opacity=".42"/>
    </filter>
  </defs>
  <rect width="760" height="560" fill="url(#page)"/>
  <g filter="url(#shadow)">
    <rect x="64" y="40" width="632" height="480" rx="18" fill="#16191e" stroke="#3a3f49"/>
    <rect x="64" y="40" width="632" height="480" rx="18" fill="url(#cardGlow)"/>
  </g>

  <g font-family="Segoe UI, Arial, sans-serif">
    <g transform="translate(90 76)">
      <path d="M0 10h8l3-7 6 18 4-11h9" fill="none" stroke="#ef6c42" stroke-width="3" stroke-linecap="round" stroke-linejoin="round"/>
      <text x="43" y="19" fill="#f5f7fa" font-size="22" font-weight="700">Earthquake Alerts</text>
      <rect x="466" y="-3" width="71" height="28" rx="14" fill="#2a2f37"/>
      <text x="501.5" y="16" fill="#aab1bc" font-size="12" font-weight="700" text-anchor="middle">4 alerts</text>
    </g>
    <text x="90" y="124" fill="#8f98a5" font-size="12">HA · USGS · last 24h</text>

    <g transform="translate(82 145)">
      <rect width="596" height="78" rx="13" fill="#202126" stroke="#f0646438"/>
      <rect width="596" height="78" rx="13" fill="#f06464" opacity=".055"/>
      <circle cx="42" cy="39" r="25" fill="#f06464" opacity=".12" stroke="#f06464" stroke-opacity=".3"/>
      <circle cx="42" cy="39" r="18" fill="none" stroke="#f06464" stroke-opacity=".28"/>
      <text x="42" y="45" fill="#f77b7b" font-size="18" font-weight="800" text-anchor="middle">7.1</text>
      <text x="82" y="28" fill="#f4f6f8" font-size="15" font-weight="700">18 km W of Petrolia, California</text>
      <text x="82" y="49" fill="#a1a9b4" font-size="12">214 mi from Home · 12 mi deep</text>
      <text x="82" y="66" fill="#7f8996" font-size="11">12 minutes ago · reviewed</text>
      <path d="m562 31 8 8-8 8" fill="none" stroke="#7f8996" stroke-width="2"/>
    </g>

    <g transform="translate(82 231)">
      <rect width="596" height="78" rx="13" fill="#202126" stroke="#f57c0038"/>
      <rect width="596" height="78" rx="13" fill="#f57c00" opacity=".055"/>
      <circle cx="42" cy="39" r="25" fill="#f57c00" opacity=".12" stroke="#f57c00" stroke-opacity=".3"/>
      <circle cx="42" cy="39" r="18" fill="none" stroke="#f57c00" stroke-opacity=".28"/>
      <text x="42" y="45" fill="#ff922b" font-size="18" font-weight="800" text-anchor="middle">5.8</text>
      <text x="82" y="28" fill="#f4f6f8" font-size="15" font-weight="700">96 km SW of Pāhala, Hawaii</text>
      <text x="82" y="49" fill="#a1a9b4" font-size="12">268 mi from Family · 22 mi deep</text>
      <text x="82" y="66" fill="#7f8996" font-size="11">2 hours ago · reviewed</text>
      <path d="m562 31 8 8-8 8" fill="none" stroke="#7f8996" stroke-width="2"/>
    </g>

    <g transform="translate(82 317)">
      <rect width="596" height="78" rx="13" fill="#202126" stroke="#f5a62338"/>
      <rect width="596" height="78" rx="13" fill="#f5a623" opacity=".05"/>
      <circle cx="42" cy="39" r="25" fill="#f5a623" opacity=".12" stroke="#f5a623" stroke-opacity=".3"/>
      <circle cx="42" cy="39" r="18" fill="none" stroke="#f5a623" stroke-opacity=".28"/>
      <text x="42" y="45" fill="#ffc04a" font-size="18" font-weight="800" text-anchor="middle">4.2</text>
      <text x="82" y="28" fill="#f4f6f8" font-size="15" font-weight="700">8 km NE of Ridgecrest, California</text>
      <text x="82" y="49" fill="#a1a9b4" font-size="12">47 mi from Home · 4 mi deep</text>
      <text x="82" y="66" fill="#7f8996" font-size="11">4 hours ago · automatic</text>
      <path d="m562 31 8 8-8 8" fill="none" stroke="#7f8996" stroke-width="2"/>
    </g>

    <g transform="translate(82 403)">
      <rect width="596" height="78" rx="13" fill="#202126" stroke="#2196f338"/>
      <rect width="596" height="78" rx="13" fill="#2196f3" opacity=".05"/>
      <circle cx="42" cy="39" r="25" fill="#2196f3" opacity=".12" stroke="#2196f3" stroke-opacity=".3"/>
      <circle cx="42" cy="39" r="18" fill="none" stroke="#2196f3" stroke-opacity=".28"/>
      <text x="42" y="45" fill="#55b5f6" font-size="18" font-weight="800" text-anchor="middle">3.0</text>
      <text x="82" y="28" fill="#f4f6f8" font-size="15" font-weight="700">3 km S of Concord, California</text>
      <text x="82" y="49" fill="#a1a9b4" font-size="12">7 mi from Home · 6 mi deep</text>
      <text x="82" y="66" fill="#7f8996" font-size="11">6 hours ago · automatic</text>
      <path d="m562 31 8 8-8 8" fill="none" stroke="#7f8996" stroke-width="2"/>
    </g>
  </g>
</svg>
